<?xml version="1.0" encoding="UTF-8" standalone="no"?>
<svg
   xmlns:dc="http://purl.org/dc/elements/1.1/"
   xmlns:cc="http://creativecommons.org/ns#"
   xmlns:rdf="http://www.w3.org/1999/02/22-rdf-syntax-ns#"
   xmlns:svg="http://www.w3.org/2000/svg"
   xmlns="http://www.w3.org/2000/svg"
   xmlns:sodipodi="http://sodipodi.sourceforge.net/DTD/sodipodi-0.dtd"
   xmlns:inkscape="http://www.inkscape.org/namespaces/inkscape"
   width="24"
   height="24"
   viewBox="0 0 6.35 6.3500002"
   version="1.1"
   id="svg8"
   sodipodi:docname="pm2-logo-dark.svg"
   inkscape:version="1.0 (b51213c273, 2020-08-10)">
  <sodipodi:namedview
     pagecolor="#ffffff"
     bordercolor="#666666"
     borderopacity="1"
     objecttolerance="10"
     gridtolerance="10"
     guidetolerance="10"
     inkscape:pageopacity="0"
     inkscape:pageshadow="2"
     inkscape:window-width="2560"
     inkscape:window-height="1332"
     id="namedview6"
     showgrid="false"
     inkscape:zoom="45.254834"
     inkscape:cx="11.87321"
     inkscape:cy="8.5902694"
     inkscape:window-x="0"
     inkscape:window-y="32"
     inkscape:window-maximized="1"
     inkscape:current-layer="svg8" />
  <defs
     id="defs2" />
  <metadata
     id="metadata5">
    <rdf:RDF>
      <cc:Work
         rdf:about="">
        <dc:format>image/svg+xml</dc:format>
        <dc:type
           rdf:resource="http://purl.org/dc/dcmitype/StillImage" />
        <dc:title></dc:title>
      </cc:Work>
    </rdf:RDF>
  </metadata>
  <path
     id="path967-5"
     style="opacity:0.97;fill:#000000;fill-opacity:1;stroke-width:0.0269211"
     d="M 3.0410165,4.2494732 C 2.8181856,3.8742943 2.7333068,3.9229905 2.5812138,3.8848659 2.5244938,3.8706509 2.3130576,3.8604639 1.8577547,3.8514699 c -0.8384152,-0.02219 -0.8392901,-0.02577 -0.774663,0.1445982 0.05272,0.074033 0.00934,0.1448951 0.3687619,0.1570791 l 0.4647452,0.00724 c 0.050262,7.831e-4 0.06397,-1.097e-4 0.2212699,0.011144 0.4595982,0.029371 0.4537689,0.03027 0.8113757,0.5720763 0.3138571,0.475521 0.3300522,0.3942487 0.475702,0.3942487 0.1456502,0 0.1911895,0 0.1171795,-0.1333035 M 3.0558965,2.1064256 c -0.222831,0.3751789 -0.3077097,0.3264827 -0.4598027,0.3646073 -0.05672,0.014215 -0.2681562,0.024402 -0.7234592,0.033396 -0.8384151,0.02219 -0.83929,0.02577 -0.774663,-0.1445982 0.05272,-0.074033 0.00934,-0.1448951 0.3687619,-0.1570791 l 0.4647452,-0.00724 c 0.050262,-7.83e-4 0.06397,1.097e-4 0.22127,-0.011144 0.4595981,-0.029371 0.4537688,-0.03027 0.8113757,-0.5720763 0.3138571,-0.475521 0.3300521,-0.3942487 0.4757021,-0.3942487 0.14565,0 0.1911894,0 0.1171794,0.1333035 m 0.4149726,0.015346 c 0.09912,-0.163178 0.09912,-0.163178 0.216504,-0.1470889 0.151422,0.020754 0.308157,0.1014521 0.393077,0.2023696 0.06076,0.072197 0.497153,0.7621367 0.851968,1.3469382 0.125822,0.2073785 0.1666832,0.2259562 0.1666832,0.3773588 0,0.1397327 -0.043042,0.2027044 -0.1182922,0.3264581 C 5.3577945,3.6768741 4.6322365,4.785686 4.5565555,4.8868857 4.4809755,4.9879593 4.2734095,5.1049866 4.1291745,5.127863 4.0238215,5.144567 4.069035,5.0980887 3.7789298,4.7171743 L 3.0921109,3.6714151 C 2.9610681,3.4718875 2.7868505,3.5429155 1.8424025,3.5332131 c -0.47381,-0.00493 -0.88737094,-0.014662 -0.91902394,-0.021764 -0.06862,-0.015396 -0.144357,-0.1855955 -0.144357,-0.3244001 0,-0.1393518 0.06577,-0.2770068 0.139562,-0.2920864 0.03429,-0.007 0.46212394,-0.01909 0.95073994,-0.026846 1.027101,-0.016314 1.105231,-0.029244 1.28797,-0.2131308 M 4.156072,3.6183704 C 4.2686034,3.456754 4.3124858,3.3939074 4.3368568,3.3355784 4.3916968,3.2043205 4.3938068,3.0168309 4.3417568,2.8925288 4.2842768,2.7550505 3.9089916,2.2164131 3.8763326,2.2164131 L 3.2128415,3.158149 3.7963119,4.0115084 C 3.9276683,3.8795275 4.1035601,3.6885997 4.155984,3.6183704 Z M 4.2385574,4.70022 C 4.2545274,4.69494 4.4180395,4.4948006 4.6376515,4.1554322 l 7e-6,6e-6 C 5.1499998,3.34691 5.3720771,3.1179477 4.7896264,2.3107295 L 4.2530784,1.5440327 4.0599494,1.9006919 4.5342602,2.630585 C 4.7010217,2.8994296 4.794761,3.2867731 4.4091089,3.7653545 L 3.9571263,4.2612732 Z" />
</svg>
