<?xml version="1.0" encoding="UTF-8" standalone="no"?>
<svg
   xmlns:dc="http://purl.org/dc/elements/1.1/"
   xmlns:cc="http://creativecommons.org/ns#"
   xmlns:rdf="http://www.w3.org/1999/02/22-rdf-syntax-ns#"
   xmlns:svg="http://www.w3.org/2000/svg"
   xmlns="http://www.w3.org/2000/svg"
   width="24"
   height="24"
   viewBox="0 0 6.35 6.3500002"
   version="1.1"
   id="svg8">
  <defs
     id="defs2" />
  <metadata
     id="metadata5">
    <rdf:RDF>
      <cc:Work
         rdf:about="">
        <dc:format>image/svg+xml</dc:format>
        <dc:type
           rdf:resource="http://purl.org/dc/dcmitype/StillImage" />
        <dc:title></dc:title>
      </cc:Work>
    </rdf:RDF>
  </metadata>
  <path
     id="path967"
     d="M 2.7194805,4.9123607 C 2.5622165,4.6559162 2.3929925,4.4911515 2.2410725,4.4465598 c -0.0564,-0.016555 -0.262952,-0.038559 -0.459003,-0.048896 -0.356454,-0.018804 -0.356454,-0.018804 -0.408706,-0.101326 -0.02874,-0.045385 -0.04631,-0.092148 -0.03904,-0.1039072 0.0072,-0.011748 0.106993,-0.021373 0.221605,-0.021373 0.214525,0 0.273006,-0.024012 0.273006,-0.1121216 0,-0.079046 -0.09059,-0.1032419 -0.386389,-0.1032419 -0.282245,0 -0.282245,0 -0.338283,-0.090668 -0.03082,-0.049871 -0.05603,-0.098332 -0.05603,-0.1076817 0,-0.00929 0.360405,-0.016738 0.800901,-0.016417 1.042494,7.732e-4 0.967527,-0.029989 1.314488,0.5392805 0.205578,0.3372986 0.262935,0.3996762 0.32927,0.3581007 0.02504,-0.015694 0.04915,-0.052544 0.05355,-0.081868 0.01136,-0.075283 -0.408328,-0.7435407 -0.534993,-0.8519612 -0.181349,-0.1552288 -0.224598,-0.1615639 -1.169046,-0.1712663 -0.47381,-0.00493 -0.88737094,-0.014662 -0.91902394,-0.021764 -0.06862,-0.015396 -0.144357,-0.1855955 -0.144357,-0.3244001 0,-0.1393518 0.06577,-0.2770068 0.139562,-0.2920864 0.03429,-0.007 0.46212394,-0.01909 0.95073994,-0.026846 1.027101,-0.016314 1.105231,-0.029244 1.28797,-0.2131308 0.146651,-0.1475788 0.508589,-0.7542768 0.497311,-0.8336132 -0.0065,-0.045867 -0.02646,-0.059726 -0.08586,-0.059726 -0.07043,0 -0.0953,0.030196 -0.277239,0.3365128 -0.222831,0.3751789 -0.332417,0.4959829 -0.48451,0.5341075 -0.05672,0.014215 -0.475636,0.033202 -0.930939,0.042196 -0.91269894,0.018012 -0.89306494,0.021683 -0.774663,-0.1445982 0.05272,-0.074033 0.05616,-0.074755 0.415579,-0.086939 0.420661,-0.01426 0.517602,-0.054518 0.404274,-0.1678429 -0.03269,-0.032685 -0.102095,-0.042311 -0.305106,-0.042311 -0.14454,0 -0.270144,-0.00734 -0.279121,-0.016314 -0.0089,-0.00895 0.0096,-0.05586 0.04128,-0.104194 0.05427,-0.082775 0.06923,-0.088855 0.258185,-0.1048251 0.110321,-0.00929 0.287457,-0.016956 0.393636,-0.016956 0.38007,0 0.548544,-0.1084618 0.79733,-0.5133066 0.164326,-0.2674043 0.164326,-0.2674043 0.296319,-0.2674043 0.0726,0 0.131991,0.00906 0.131991,0.020043 0,0.011014 -0.111904,0.2060305 -0.248685,0.4333496 -0.285513,0.4745155 -0.356405,0.5367485 -0.640807,0.5625377 -0.180769,0.016394 -0.240411,0.068709 -0.177071,0.1553343 0.02967,0.040579 0.06397,0.045959 0.22127,0.034705 0.352048,-0.025194 0.454657,-0.1161967 0.836083,-0.7415765 0.283235,-0.4643888 0.283235,-0.4643888 0.428885,-0.4643888 0.14565,0 0.14565,0 0.07164,0.1333035 -0.06862,0.1235598 -0.0708,0.1365513 -0.02992,0.1777541 0.07004,0.070591 0.146341,0.024437 0.254823,-0.1541424 0.09912,-0.163178 0.09912,-0.163178 0.216504,-0.1470889 0.151422,0.020754 0.308157,0.1014521 0.393077,0.2023696 0.06076,0.072197 0.497153,0.7621367 0.851968,1.3469382 0.125822,0.2073785 0.137451,0.2405366 0.137451,0.3919392 0,0.1397327 -0.01381,0.188124 -0.08906,0.3118777 -0.124124,0.2041467 -0.849682,1.3129586 -0.925363,1.4141583 -0.07558,0.1010736 -0.283146,0.2181009 -0.427381,0.2409773 -0.105353,0.016704 -0.106822,0.015729 -0.195325,-0.1308025 -0.114766,-0.1900125 -0.174166,-0.2434725 -0.245413,-0.22086 -0.07203,0.022853 -0.07285,0.1193562 -0.002,0.2355209 0.02955,0.048472 0.05379,0.09723 0.05384,0.1083356 5.5e-5,0.011128 -0.07561,0.019997 -0.168156,0.019756 -0.168252,-4.336e-4 -0.168252,-4.336e-4 -0.422177,-0.4105523 -0.323137,-0.521903 -0.362602,-0.5733885 -0.502277,-0.6552431 -0.226264,-0.1325979 -0.60331,-0.141714 -0.60331,-0.014593 0,0.07752 0.05086,0.1030698 0.237102,0.1191153 0.277011,0.023863 0.303848,0.050112 0.687379,0.672288 0.178396,0.2894006 0.178396,0.2894006 0.03441,0.2894006 -0.143987,0 -0.143987,0 -0.283713,-0.2278467 z M 4.6376585,4.1554382 C 5.1049105,3.4333891 5.1665185,3.3155392 5.1668775,3.143074 5.1672235,2.97477 5.1440975,2.9209475 4.9062145,2.536719 4.6723075,2.1589037 4.6199915,2.1004796 4.5531105,2.1423947 c -0.0879,0.05508 -0.06333,0.1354798 0.14066,0.4601644 0.22287,0.3547393 0.258001,0.4294373 0.258001,0.5485825 0,0.1090125 -0.02985,0.1624863 -0.478292,0.856532 -0.390169,0.6038712 -0.390169,0.6038712 -0.341674,0.6939196 0.02667,0.049527 0.06156,0.085735 0.07752,0.080457 0.01597,-0.00528 0.208714,-0.2872496 0.428326,-0.626618 z m -0.523246,-0.048414 c 0.07558,-0.1166498 0.137412,-0.2395282 0.137412,-0.2730602 0,-0.066334 -0.06166,-0.1033336 -0.133954,-0.0804 -0.04485,0.014237 -0.296782,0.3856442 -0.296782,0.4375209 0,0.046728 0.113831,0.1730823 0.135262,0.1501371 0.01136,-0.012161 0.08249,-0.1175515 0.158062,-0.2342013 z M 3.8404555,3.6769487 c 0.07728,-0.1222359 0.160451,-0.2699718 0.184822,-0.3283008 0.05484,-0.1312579 0.05695,-0.3187475 0.0049,-0.4430496 -0.05748,-0.1374783 -0.284932,-0.4844174 -0.317591,-0.4844174 -0.02589,0 -0.46599,0.6490055 -0.499745,0.7369681 -0.01811,0.047198 0.409014,0.7442533 0.454894,0.7423683 0.01767,-7.228e-4 0.09535,-0.1013374 0.172632,-0.2235686 z m 0.618897,-0.1318154 c 0.144512,-0.1580452 0.202567,-0.474254 0.117386,-0.6393742 -0.113383,-0.2197896 -0.559123,-0.9150997 -0.586702,-0.9151972 -0.01813,-6.54e-5 -0.05181,0.036345 -0.07486,0.080893 -0.04903,0.094821 -0.06393,0.060461 0.228822,0.5278331 0.294049,0.4694435 0.308278,0.5379176 0.166622,0.8018365 -0.04185,0.077956 -0.0495,0.1178292 -0.02971,0.1547951 0.036,0.067275 0.111227,0.062732 0.178437,-0.010784 z m -0.01627,-1.6253802 c 0.03116,-0.03755 0.02462,-0.065291 -0.04598,-0.1951774 -0.09267,-0.1704677 -0.145652,-0.1974673 -0.197476,-0.1006375 -0.04477,0.08367 -0.0195,0.1895639 0.06553,0.2745975 0.07594,0.075926 0.127421,0.082075 0.177929,0.021213 z"
     style="opacity:0.97000002;fill:#000000;stroke-width:0.02692103" />
</svg>
